# File created by Blade
# Date/Time:  Tue Jan 27 19:58:31 2015
# Frame Rate: 120.000 fps
#------------------------------------------------------
:FULLY-SPECIFIED
:DEGREES
1815
root 6.517950 33.186407 3.098492 -4.296184 -17.595795 -19.475753
Spine 8.540200 17.335817 15.398357
Head 7.418202 -10.400888 5.533994
LeftShoulder -15.974220 2.487567 31.027569
LeftArm -7.339155 -6.030503 -83.507980
LeftForeArm -15.873538 -0.000000 121.755699
LeftHand 9.911001 -0.000000 -18.348688
LeftHandThumb1 -26.253704 0.000000 33.147579
RightShoulder -18.033282 -14.564313 -21.914041
RightArm 12.857214 -7.064980 76.798825
RightForeArm -15.539264 -0.000000 15.554028
RightHand 18.583245 -0.000000 7.503254
RightHandThumb1 -24.326973 -0.000000 -32.862282
LeftUpLeg 14.714729 9.423154 10.469322
LeftLeg 3.100127 -0.000000 -0.000000
LeftFoot -23.781028 18.126665 -18.431574
LeftToeBase 21.946378 -0.000000 -0.000000
RightUpLeg -74.697911 -28.246129 7.923148
RightLeg 122.117213 -0.000000 -0.000000
RightFoot 32.348539 -20.348336 18.427304
RightToeBase 10.494928 -0.000000 -0.000000
1816
root 6.526271 33.188750 3.088241 -4.139971 -17.727086 -19.503603
Spine 8.473225 17.377814 15.475121
Head 7.366506 -10.255206 5.385062
LeftShoulder -15.966507 2.555629 30.927109
LeftArm -7.548382 -6.245337 -83.553115
LeftForeArm -15.957050 0.000000 121.856262
LeftHand 9.886757 -0.000000 -18.303657
LeftHandThumb1 -26.253704 0.000000 33.147579
RightShoulder -18.018671 -14.565684 -21.989272
RightArm 12.880385 -7.088568 76.806353
RightForeArm -15.476025 -0.000000 15.495691
RightHand 18.574180 -0.000000 7.832752
RightHandThumb1 -24.326973 -0.000000 -32.862282
LeftUpLeg 14.650009 9.468263 10.444770
LeftLeg 2.971633 -0.000000 -0.000000
LeftFoot -23.796913 18.222355 -18.498479
LeftToeBase 22.148187 -0.000000 -0.000000
RightUpLeg -75.164089 -28.245270 8.215601
RightLeg 122.523254 -0.000000 -0.000000
RightFoot 32.428514 -20.215666 18.364465
RightToeBase 9.980574 -0.000000 -0.000000
1817
root 6.545851 33.188335 3.077715 -4.063539 -17.721035 -19.470405
Spine 8.483397 17.259104 15.533037
Head 7.249131 -10.103980 5.182363
LeftShoulder -16.003456 2.684403 30.793976
LeftArm -7.627815 -6.422401 -83.622103
LeftForeArm -15.989725 -0.000000 121.909659
LeftHand 9.912401 0.000000 -18.187266
LeftHandThumb1 -26.253704 0.000000 33.147579
RightShoulder -17.983930 -14.564241 -22.109579
RightArm 12.897157 -7.096142 76.836443
RightForeArm -15.525468 0.000000 15.480806
RightHand 18.499033 -0.000000 7.957200
RightHandThumb1 -24.326973 -0.000000 -32.862282
LeftUpLeg 14.566185 9.339315 10.321028
LeftLeg 2.885222 -0.000000 -0.000000
LeftFoot -23.780334 18.393131 -18.564048
LeftToeBase 22.112090 -0.000000 -0.000000
RightUpLeg -75.632494 -28.428591 8.411108
RightLeg 122.808065 -0.000000 -0.000000
RightFoot 32.277199 -20.231214 18.529619
RightToeBase 11.036529 -0.000000 -0.000000
1818
root 6.556702 33.189308 3.071977 -3.977233 -17.838642 -19.474441
Spine 8.496909 17.255835 15.605688
Head 7.160256 -9.949740 5.059540
LeftShoulder -16.046837 2.762068 30.731264
LeftArm -7.767006 -6.563359 -83.667160
LeftForeArm -16.016826 -0.000000 121.945241
LeftHand 9.944563 -0.000000 -18.130094
LeftHandThumb1 -26.253704 0.000000 33.147579
RightShoulder -17.945483 -14.543621 -22.187293
RightArm 12.872060 -7.179210 76.830176
RightForeArm -15.353182 -0.000000 15.471035
RightHand 18.571266 -0.000000 7.921615
RightHandThumb1 -24.326973 -0.000000 -32.862282
LeftUpLeg 14.561958 9.415295 10.295144
LeftLeg 2.769386 -0.000000 -0.000000
LeftFoot -23.731628 18.430615 -18.570303
LeftToeBase 22.104962 -0.000000 -0.000000
RightUpLeg -76.109328 -28.455721 8.627286
RightLeg 122.932534 -0.000000 -0.000000
RightFoot 32.329422 -20.097359 18.420185
RightToeBase 9.569944 -0.000000 -0.000000
